# xmcd
#
# Track frame offsets:
#       182
#       13172
#       29052
#       44580
#       60375
#       75197
#       86490
#       100737
#       118295
#       136680
#       151660
#       170390
#       179102
#       223672
#       236420
#       257832
#       269712
#       288292
#       294805
#
# Disc length: 4065 seconds
#
# Revision: 0
# Processed by: cddbd v1.4PL0 Copyright (c) Steve Scherf et al.
# Submitted via: CD-DA_X-Tractor v0.21
#
DISCID=0a0fdf13
DTITLE=ZZ Top - Tres Hombres - Fandango
DYEAR=1900
DGENRE=
TTITLE0=Waitin' For The Bus
TTITLE1=Jesus Just Left Chicago
TTITLE2=Beer Drinkers and Hell Raisers
TTITLE3=Master of Sparks
TTITLE4=Hot, Blue And Righteous
TTITLE5=Move Me On Down The Line
TTITLE6=Precious And Grace
TTITLE7=La Grange
TTITLE8=Shiek
TTITLE9=Have You Heard?
TTITLE10=Thunderbird
TTITLE11=Jailhouse Rock
TTITLE12=Backdoor Medley
TTITLE13=Nasty Dogs And Funky Kings
TTITLE14=Blue Jean Blues
TTITLE15=Balinese
TTITLE16=Mexican Blackbird
TTITLE17=Heard It On The X
TTITLE18=Tush
EXTD=
EXTT0=
EXTT1=
EXTT2=
EXTT3=
EXTT4=
EXTT5=
EXTT6=
EXTT7=
EXTT8=
EXTT9=
EXTT10=
EXTT11=
EXTT12=
EXTT13=
EXTT14=
EXTT15=
EXTT16=
EXTT17=
EXTT18=
PLAYORDER=
